<?xml version="1.0" standalone="no"?>
<!DOCTYPE svg PUBLIC "-//W3C//DTD SVG 20010904//EN"
 "http://www.w3.org/TR/2001/REC-SVG-20010904/DTD/svg10.dtd">
<svg version="1.0" xmlns="http://www.w3.org/2000/svg"
 width="32.000000pt" height="32.000000pt" viewBox="0 0 32.000000 32.000000"
 preserveAspectRatio="xMidYMid meet">

<g transform="translate(0.000000,32.000000) scale(0.100000,-0.100000)"
fill="#000000" stroke="none">
<path d="M78 224 c-43 -42 -78 -78 -78 -79 0 -1 9 -5 20 -8 12 -3 20 0 20 7 0
6 26 38 58 69 l58 58 65 -68 c55 -58 81 -73 97 -58 2 2 -14 20 -37 40 -22 20
-40 40 -40 43 3 19 -2 32 -12 32 -8 0 -7 -6 2 -17 7 -10 -5 -1 -27 20 -22 20
-42 37 -44 37 -3 0 -40 -35 -82 -76z"/>
<path d="M110 105 l0 -45 44 0 44 0 4 45 3 45 -47 0 -48 0 0 -45z m64 29 c16
-6 23 -43 9 -45 -5 0 -18 -2 -31 -5 -24 -4 -38 15 -28 41 6 16 24 19 50 9z"/>
</g>
</svg>
