<?xml version="1.0" standalone="no"?>
<!DOCTYPE svg PUBLIC "-//W3C//DTD SVG 20010904//EN"
 "http://www.w3.org/TR/2001/REC-SVG-20010904/DTD/svg10.dtd">
<svg version="1.0" xmlns="http://www.w3.org/2000/svg"
 width="518.000000pt" height="317.000000pt" viewBox="0 0 518.000000 317.000000"
 preserveAspectRatio="xMidYMid meet">

<g transform="translate(0.000000,317.000000) scale(0.100000,-0.100000)"
fill="#000000" stroke="none">
<path d="M4193 2893 c-7 -2 -13 -22 -13 -44 0 -33 4 -40 24 -45 45 -11 66 3
66 46 0 45 -30 62 -77 43z"/>
<path d="M325 2867 c-3 -7 -4 -147 -3 -312 l3 -300 40 0 40 0 3 143 3 142 144
0 145 0 0 -145 0 -145 40 0 40 0 0 315 0 315 -40 0 -40 0 0 -130 0 -130 -145
0 -145 0 0 130 0 130 -40 0 c-24 0 -43 -5 -45 -13z"/>
<path d="M2767 2873 c-4 -3 -7 -140 -7 -303 0 -241 3 -300 14 -309 9 -8 61
-11 162 -9 l149 3 3 33 3 32 -120 0 -121 0 0 280 0 280 -38 0 c-21 0 -42 -3
-45 -7z"/>
<path d="M1020 2698 c-57 -29 -97 -87 -110 -160 -12 -64 -2 -146 24 -197 61
-117 245 -137 341 -37 48 50 65 99 65 194 0 94 -35 165 -99 199 -61 32 -159
32 -221 1z m176 -63 c40 -26 58 -73 59 -150 0 -125 -49 -182 -147 -173 -87 9
-124 71 -116 195 5 72 26 108 79 136 38 20 87 17 125 -8z"/>
<path d="M1471 2706 c-8 -9 -11 -79 -9 -232 l3 -219 40 0 40 0 3 162 2 161 40
36 c62 56 125 47 151 -21 5 -13 9 -96 9 -184 l0 -159 40 0 40 0 0 162 0 161
41 39 c36 34 46 39 81 36 31 -2 46 -10 62 -31 18 -25 21 -45 24 -198 l4 -170
37 3 36 3 0 175 c-1 141 -4 182 -17 212 -36 80 -136 102 -220 49 -25 -16 -48
-33 -52 -39 -3 -5 -23 8 -45 29 -35 35 -44 39 -90 39 -58 0 -82 -10 -123 -48
l-28 -26 0 31 c0 41 -44 59 -69 29z"/>
<path d="M2349 2700 c-79 -42 -109 -105 -109 -230 1 -121 48 -195 143 -221 50
-13 151 -6 201 15 30 13 36 20 36 45 0 35 -1 36 -55 16 -63 -23 -157 -19 -190
7 -30 24 -55 74 -55 112 l0 25 158 3 157 3 3 37 c7 82 -39 167 -105 194 -47
20 -141 17 -184 -6z m171 -65 c23 -21 44 -80 36 -100 -4 -12 -28 -15 -115 -15
-64 0 -112 4 -116 10 -12 19 16 79 48 106 27 22 38 25 79 22 27 -3 57 -13 68
-23z"/>
<path d="M3260 2698 c-57 -29 -97 -87 -110 -160 -12 -64 -2 -146 24 -197 61
-117 245 -137 341 -37 48 50 65 99 65 194 0 94 -35 165 -99 199 -61 32 -159
32 -221 1z m176 -63 c40 -26 58 -73 59 -150 0 -125 -49 -182 -147 -173 -87 9
-124 71 -116 195 5 72 26 108 79 136 38 20 87 17 125 -8z"/>
<path d="M3785 2707 c-77 -35 -110 -118 -81 -200 16 -44 16 -50 2 -66 -28 -31
-31 -79 -7 -112 l22 -29 -26 -34 c-36 -47 -35 -108 3 -146 55 -54 205 -64 297
-20 33 16 49 32 66 67 21 43 21 49 8 86 -22 63 -50 77 -168 87 -146 13 -158
19 -140 69 7 17 13 21 27 15 9 -4 42 -9 72 -11 104 -7 175 58 168 152 -3 28
-8 58 -12 67 -6 13 -1 17 26 20 28 2 34 7 36 31 3 26 1 27 -41 27 -24 0 -84 2
-133 5 -65 4 -97 2 -119 -8z m137 -67 c32 -25 42 -71 24 -115 -16 -37 -42 -55
-80 -55 -76 0 -118 71 -85 144 22 46 97 61 141 26z m32 -370 c15 -5 31 -21 38
-35 35 -76 -132 -137 -219 -80 -30 20 -31 70 -1 102 18 20 31 23 89 23 37 0
79 -4 93 -10z"/>
<path d="M4191 2706 c-8 -9 -11 -79 -9 -232 l3 -219 40 0 40 0 3 219 c3 231 0
246 -43 246 -12 0 -28 -6 -34 -14z"/>
<path d="M4375 2710 c-4 -6 23 -58 59 -116 75 -120 76 -97 -11 -231 -75 -117
-74 -115 -22 -111 43 3 44 4 94 85 27 45 53 84 56 88 4 3 30 -35 60 -85 l53
-90 43 0 c24 0 43 4 43 10 0 5 -31 58 -69 118 l-69 109 65 103 c35 57 62 109
59 116 -7 18 -51 18 -69 -1 -8 -8 -34 -46 -58 -85 -24 -38 -47 -70 -50 -70 -4
0 -28 36 -53 79 -26 44 -54 82 -62 85 -25 9 -62 7 -69 -4z"/>
<path d="M2470 1255 c0 -8 -7 -15 -15 -15 -8 0 -15 -9 -15 -20 0 -11 -7 -20
-15 -20 -8 0 -15 -7 -15 -15 0 -8 -7 -15 -15 -15 -8 0 -15 -7 -15 -15 0 -8 -9
-15 -20 -15 -11 0 -20 -7 -20 -15 0 -8 -7 -15 -15 -15 -8 0 -15 -7 -15 -15 0
-8 -7 -15 -15 -15 -8 0 -15 -7 -15 -15 0 -8 -7 -15 -15 -15 -8 0 -15 -9 -15
-20 0 -11 -7 -20 -15 -20 -8 0 -15 -7 -15 -15 0 -8 -7 -15 -15 -15 -8 0 -15
-7 -15 -15 0 -8 -7 -15 -15 -15 -8 0 -15 -7 -15 -15 0 -8 -7 -15 -15 -15 -8 0
-15 -7 -15 -15 0 -8 -9 -15 -20 -15 -11 0 -20 -7 -20 -15 0 -8 -7 -15 -15 -15
-8 0 -15 -9 -15 -20 0 -16 -7 -20 -30 -20 -27 0 -30 -3 -30 -30 0 -29 2 -30
45 -30 33 0 45 -4 45 -15 0 -8 9 -15 20 -15 17 0 20 7 20 45 0 33 4 45 15 45
8 0 15 9 15 20 0 11 7 20 15 20 8 0 15 7 15 15 0 8 7 15 15 15 8 0 15 7 15 15
0 8 7 15 15 15 8 0 15 7 15 15 0 8 7 15 15 15 8 0 15 7 15 15 0 8 7 15 15 15
8 0 15 7 15 15 0 8 7 15 15 15 8 0 15 9 15 20 0 13 7 20 20 20 11 0 20 7 20
15 0 8 7 15 15 15 8 0 15 7 15 15 0 8 7 15 15 15 8 0 15 7 15 15 0 8 7 15 15
15 8 0 15 7 15 15 0 8 7 15 15 15 8 0 15 -7 15 -15 0 -8 7 -15 15 -15 8 0 15
-7 15 -15 0 -8 7 -15 15 -15 8 0 15 -7 15 -15 0 -8 7 -15 15 -15 8 0 15 -7 15
-15 0 -8 9 -15 20 -15 13 0 20 -7 20 -20 0 -11 7 -20 15 -20 8 0 15 -7 15 -15
0 -8 7 -15 15 -15 8 0 15 -7 15 -15 0 -8 7 -15 15 -15 8 0 15 -7 15 -15 0 -8
7 -15 15 -15 8 0 15 -7 15 -15 0 -8 7 -15 15 -15 8 0 15 -7 15 -15 0 -8 7 -15
15 -15 8 0 15 -9 15 -20 0 -11 7 -20 15 -20 10 0 15 -10 15 -30 0 -23 4 -30
20 -30 11 0 20 -7 20 -15 0 -8 7 -15 15 -15 8 0 15 7 15 15 0 11 12 15 45 15
43 0 45 1 45 30 0 27 -3 30 -30 30 -23 0 -30 4 -30 20 0 11 -7 20 -15 20 -8 0
-15 7 -15 15 0 8 -7 15 -15 15 -8 0 -15 7 -15 15 0 8 -9 15 -20 15 -11 0 -20
7 -20 15 0 8 -7 15 -15 15 -8 0 -15 7 -15 15 0 8 -7 15 -15 15 -8 0 -15 7 -15
15 0 8 -7 15 -15 15 -8 0 -15 9 -15 20 0 11 7 20 15 20 8 0 15 7 15 15 0 8 -7
15 -15 15 -10 0 -15 10 -15 30 0 27 -3 30 -30 30 -20 0 -30 -5 -30 -15 0 -8 7
-15 15 -15 8 0 15 -7 15 -15 0 -8 7 -15 15 -15 8 0 15 -7 15 -15 0 -8 -7 -15
-15 -15 -8 0 -15 7 -15 15 0 8 -7 15 -15 15 -8 0 -15 7 -15 15 0 8 -7 15 -15
15 -8 0 -15 7 -15 15 0 8 -7 15 -15 15 -8 0 -15 7 -15 15 0 8 -9 15 -20 15
-11 0 -20 7 -20 15 0 8 -7 15 -15 15 -8 0 -15 9 -15 20 0 11 -7 20 -15 20 -8
0 -15 7 -15 15 0 10 -10 15 -30 15 -20 0 -30 -5 -30 -15z"/>
<path d="M2840 1125 c0 -8 9 -15 20 -15 11 0 20 7 20 15 0 8 -9 15 -20 15 -11
0 -20 -7 -20 -15z"/>
<path d="M2340 650 l0 -140 145 0 145 0 0 125 c0 104 2 125 15 125 8 0 15 7
15 15 0 13 -24 15 -160 15 l-160 0 0 -140z m190 95 c0 -10 10 -15 30 -15 l30
0 0 -65 0 -65 -30 0 c-20 0 -30 -5 -30 -15 0 -8 -7 -15 -15 -15 -8 0 -15 7
-15 15 0 8 -7 15 -15 15 -8 0 -15 -7 -15 -15 0 -10 -10 -15 -30 -15 -20 0 -30
5 -30 15 0 8 -7 15 -15 15 -12 0 -15 14 -15 65 0 51 3 65 15 65 8 0 15 7 15
15 0 12 13 15 60 15 47 0 60 -3 60 -15z"/>
</g>
</svg>
